<?xml version="1.0" encoding="utf-8"?>
<!-- Generator: Adobe Illustrator 22.1.0, SVG Export Plug-In . SVG Version: 6.00 Build 0)  -->
<svg version="1.1" id="レイヤー_1" xmlns="http://www.w3.org/2000/svg" xmlns:xlink="http://www.w3.org/1999/xlink" x="0px"
	 y="0px" viewBox="0 0 841.9 595.3" style="enable-background:new 0 0 841.9 595.3;" xml:space="preserve">
<style type="text/css">
	.st0{fill:none;stroke:#000000;stroke-miterlimit:10;}
</style>
<path class="st0" d="M229,34.1c21.4-3.1,59.8,0.4,99.9,25.5c9.5,5.9,18.4,13.1,24.8,22.3c18.3,26.2,12,62.2,0.1,91.8
	c-5.3,13.3-11.8,26.5-21.8,36.9c-8.4,8.7-18.9,15-29.3,21.1c-25.7,15.2-52.1,30.3-81.2,36.8c-28.8,6.4-58.8,4-88-0.3
	c-15.4-2.2-30.9-5-45.1-11.4s-27-16.9-33.4-31.1c-5.3-11.7-5.9-25-6.4-37.8c-0.3-8.2-0.6-16.5,0.2-24.7c1.1-11.3,4.4-22.3,8.8-32.7
	c15.9-37.2,48-67.2,86.3-80.4C154,46.6,207.6,37.2,229,34.1z"/>
<path class="st0" d="M339.1,315.5c-0.7,11-1.4,22.1-3.8,32.9c-7.2,32.7-30.2,60.9-59.2,77.6s-63.6,22.4-97,19.4
	c-19.4-1.7-38.5-6.3-57.2-12c-13.1-4-26.3-8.8-37-17.5c-8-6.5-14.2-15.1-19.5-23.9c-15-24.8-24.2-54.1-21-82.9
	c2.4-21.5,11.8-42.3,26.4-58.3c12.9-14.1,29.4-24.4,46.2-33.7c12.5-7,25.3-13.5,38.7-18.6c33.6-12.9,70-16.8,106-15.8
	c12.3,0.3,25.1,1.3,35.8,7.4c11.2,6.4,18.7,17.5,25.8,28.3c6.5,10,13.1,20.4,15.9,32C342,262,339.6,306.7,339.1,315.5z"/>
<path class="st0" d="M465.8,172.3c6.7,15.2-3.9,82.6-5.9,123.9c-0.5,9.9-0.9,19.9-2.9,29.6c-3.2,15.4-10.1,30-20.2,42.2
	c-7.1,8.6-15.7,16-25.5,21.3c-9.7,5.3-20.3,8.5-30.9,11.3c-25.2,6.7-51.2,11.3-77.2,10.3c-26-1-52.3-7.9-73.7-22.7
	c-32.6-22.5-51.5-63.4-47.6-102.9c3.4-33.9,22-64.4,43.6-90.7c7.7-9.4,15.9-18.5,25-26.5c28.7-25.2,65.9-39.2,103.7-44.9
	c19.6-3,39.9-3.8,58.9,1.9s32.2,15.1,36.6,21.5S459.1,157,465.8,172.3z"/>
</svg>
